{"title":"Planes 2013 V2 NEW AUDIO CAM XViD UNiQUE","uid":8847731,"size":735395840,"categoryP":"video","categoryS":"movies","magnet":"?xt=urn:btih:8a49908a6d5462c48b3bfadf1349a743b0c002b9&amp;dn=Planes+2013+V2+NEW+AUDIO+CAM+XViD+UNiQUE&amp;tr=udp%3A%2F%2Ftracker.openbittorrent.com%3A80&amp;tr=udp%3A%2F%2Fopen.demonii.com%3A1337&amp;tr=udp%3A%2F%2Ftracker.coppersurfer.tk%3A6969&amp;tr=udp%3A%2F%2Fexodus.desync.com%3A6969","seeders":1,"leechers":0,"uploader":"TeX","files":3,"time":1377444746,"description":"[img]http://www.aceshowbiz.com/images/still/planes-poster04.jpg[/img]\n\n\nFormat : AVI\nFormat/Info : Audio Video Interleave\nFile size : 696 MiB\nDuration : 1h 22mn\nOverall bit rate : 1 174 Kbps\nWriting application : VirtualDubMod 1.5.10.2 (build 2540/release)\nWriting library : VirtualDubMod build 2540/release\n\nVideo\nID : 0\nFormat : MPEG-4 Visual\nFormat profile : Advanced Simple@L5\nFormat settings, BVOP : 2\nFormat settings, QPel : No\nFormat settings, GMC : No warppoints\nFormat settings, Matrix : Default (H.263)\nMuxing mode : Packed bitstream\nCodec ID : XVID\nCodec ID/Hint : XviD\nDuration : 1h 22mn\nBit rate : 1 040 Kbps\nWidth : 720 pixels\nHeight : 304 pixels\nDisplay aspect ratio : 2.35:1\nFrame rate : 16.639 fps\nColor space : YUV\nChroma subsampling : 4:2:0\nBit depth : 8 bits\nScan type : Progressive\nCompression mode : Lossy\nBits/(Pixel*Frame) : 0.286\nStream size : 616 MiB (89%)\nWriting library : XviD 64\n\nAudio\nID : 1\nFormat : MPEG Audio\nFormat version : Version 1\nFormat profile : Layer 3\nMode : Joint stereo\nMode extension : MS Stereo\nCodec ID : 55\nCodec ID/Hint : MP3\nDuration : 1h 22mn\nBit rate mode : Constant\nBit rate : 128 Kbps\nChannel(s) : 2 channels\nSampling rate : 44.1 KHz\nCompression mode : Lossy\nStream size : 75.5 MiB (11%)\nAlignment : Aligned on interleaves\nInterleave, duration : 60 ms (1.00 video frame)\nInterleave, preload duration : 522 ms\n\n\n","torrent":{"xt":"urn:btih:8a49908a6d5462c48b3bfadf1349a743b0c002b9","amp;dn":"Planes+2013+V2+NEW+AUDIO+CAM+XViD+UNiQUE","amp;tr":["udp%3A%2F%2Ftracker.openbittorrent.com%3A80","udp%3A%2F%2Fopen.demonii.com%3A1337","udp%3A%2F%2Ftracker.coppersurfer.tk%3A6969","udp%3A%2F%2Fexodus.desync.com%3A6969"],"infoHash":"8a49908a6d5462c48b3bfadf1349a743b0c002b9","infoHashBuffer":{"type":"Buffer","data":[138,73,144,138,109,84,98,196,139,59,250,223,19,73,167,67,176,192,2,185]},"announce":[],"urlList":[]}}